<svg width="86" height="86" viewBox="0 0 86 86" fill="none" xmlns="http://www.w3.org/2000/svg">
<circle cx="43" cy="43" r="42.6417" stroke="#1DDBF3" stroke-opacity="0.24" stroke-width="0.716667"/>
<circle cx="43" cy="43" r="42.6417" stroke="#1DDBF3" stroke-opacity="0.24" stroke-width="0.716667"/>
<circle cx="34.4" cy="34.4" r="34.0417" transform="translate(8.60001 8.59998)" stroke="#1DDBF3" stroke-opacity="0.24" stroke-width="0.716667"/>
<circle cx="28.6667" cy="28.6667" r="28.6667" transform="translate(14.3333 14.3334)" fill="#5207FB"/>
<path d="M3.48989 3.97H1.10339V13H2.40629V9.8266H3.48989C5.25719 9.8266 6.26339 8.7817 6.26339 6.8854C6.26339 5.0407 5.25719 3.97 3.48989 3.97ZM3.47699 8.5882H2.40629V5.2084H3.47699C4.45739 5.2084 4.93469 5.776 4.93469 6.8854C4.93469 8.0464 4.45739 8.5882 3.47699 8.5882ZM11.3115 13H12.7563L10.7955 9.5428C11.8275 9.1687 12.4209 8.2012 12.4209 6.7951C12.4209 5.002 11.4405 3.97 9.71192 3.97H7.37702V13H8.67992V9.7234H9.49262L11.3115 13ZM8.67992 5.2084H9.69902C10.602 5.2084 11.0793 5.7502 11.0793 6.8209C11.0793 7.8916 10.602 8.485 9.68612 8.485H8.67992V5.2084ZM13.8774 3.97V13H15.1803V3.97H13.8774ZM18.3825 13H19.8015L22.0203 3.97H20.6658L19.5693 8.9494C19.4016 9.7492 19.2468 10.6264 19.1178 11.3488H19.0662C18.9372 10.6264 18.7953 9.7492 18.6147 8.9494L17.5311 3.97H16.1637L18.3825 13ZM26.4377 13H27.7922L25.5218 3.97H24.1157L21.8453 13H23.2127L23.6255 11.1811H26.012L26.4377 13ZM23.9093 9.9685L24.464 7.5433C24.6059 6.9499 24.7349 6.0856 24.7994 5.6083H24.8381C24.9026 6.0856 25.0445 6.9499 25.1735 7.5433L25.7411 9.9685H23.9093ZM32.7132 3.97H27.6306V5.2084H29.5011V13H30.8298V5.2084H32.7132V3.97ZM35.0594 11.7745V9.0139H37.9361V7.8142H35.0594V5.1955H38.1812V3.97H33.7565V13H38.3102V11.7745H35.0594Z" transform="translate(22.65 35.1167)" fill="white"/>
</svg>
