<svg width="120" height="120" viewBox="0 0 120 120" fill="none" xmlns="http://www.w3.org/2000/svg">
<circle cx="60" cy="60" r="59.5" stroke="#1DDBF3" stroke-opacity="0.24"/>
<circle cx="60" cy="60" r="59.5" stroke="#1DDBF3" stroke-opacity="0.24"/>
<circle cx="48" cy="48" r="47.5" transform="translate(12 12)" stroke="#1DDBF3" stroke-opacity="0.24"/>
<circle cx="40" cy="40" r="40" transform="translate(20 20)" fill="white"/>
<path opacity="0.5" d="M4.66031 5.4H1.33031V18H3.14831V13.572H4.66031C7.12631 13.572 8.53031 12.114 8.53031 9.468C8.53031 6.894 7.12631 5.4 4.66031 5.4ZM4.64231 11.844H3.14831V7.128H4.64231C6.01031 7.128 6.67631 7.92 6.67631 9.468C6.67631 11.088 6.01031 11.844 4.64231 11.844ZM15.5742 18H17.5902L14.8542 13.176C16.2942 12.654 17.1222 11.304 17.1222 9.342C17.1222 6.84 15.7542 5.4 13.3422 5.4H10.0842V18H11.9022V13.428H13.0362L15.5742 18ZM11.9022 7.128H13.3242C14.5842 7.128 15.2502 7.884 15.2502 9.378C15.2502 10.872 14.5842 11.7 13.3062 11.7H11.9022V7.128ZM19.1545 5.4V18H20.9725V5.4H19.1545ZM25.4408 18H27.4208L30.5167 5.4H28.6268L27.0967 12.348C26.8627 13.464 26.6468 14.688 26.4668 15.696H26.3947C26.2148 14.688 26.0167 13.464 25.7647 12.348L24.2527 5.4H22.3448L25.4408 18ZM36.6805 18H38.5705L35.4025 5.4H33.4405L30.2725 18H32.1805L32.7565 15.462H36.0865L36.6805 18ZM33.1525 13.77L33.9265 10.386C34.1245 9.558 34.3045 8.352 34.3945 7.686H34.4485C34.5385 8.352 34.7365 9.558 34.9165 10.386L35.7085 13.77H33.1525ZM45.4371 5.4H38.3451V7.128H40.9551V18H42.8091V7.128H45.4371V5.4ZM48.7108 16.29V12.438H52.7248V10.764H48.7108V7.11H53.0668V5.4H46.8928V18H53.2468V16.29H48.7108Z" transform="translate(33 49)" fill="#5207FB"/>
</svg>
