<svg width="104" height="104" viewBox="0 0 104 104" fill="none" xmlns="http://www.w3.org/2000/svg">
<rect opacity="0.1" x="1" y="1" width="102" height="102" rx="51" stroke="#1DDBF3" stroke-width="2"/>
<path d="M48 30.752V0H0V30.752H19.5916V32.7313H9.35007V34.3647H38.0261V32.7313H28.0064V30.752H48ZM3.51085 26.2246V3.51085H44.4881V26.2215H3.51085V26.2246Z" transform="translate(28 35)" fill="#1DDBF3"/>
<path d="M0 6.27476H25.6099V0H0V6.27476ZM0.50882 0.50882H25.1011V5.76594H0.50882V0.50882Z" transform="translate(39.1584 41.4641)" fill="#1DDBF3"/>
<path d="M0 5.66011H7.87551V0H0V5.66011ZM0.50882 0.507802H7.36669V5.15027H0.50882V0.507802Z" transform="translate(39.134 48.7412)" fill="#1DDBF3"/>
<path d="M0 5.66011H7.87449V0H0V5.66011ZM0.50882 0.507802H7.36567V5.15027H0.50882V0.507802Z" transform="translate(47.9936 48.7412)" fill="#1DDBF3"/>
<path d="M7.87449 0H0V5.66011H7.87449V0ZM7.36567 5.15231H0.50882V0.509837H7.36567V5.15231Z" transform="translate(56.9152 48.7401)" fill="#1DDBF3"/>
<path d="M7.09905 0H0V0.492539H7.09905V0Z" transform="translate(39.134 55.6886)" fill="#1DDBF3"/>
<path d="M7.87551 0H0V0.492537H7.87551V0Z" transform="translate(39.134 56.5952)" fill="#1DDBF3"/>
<path d="M6.4152 0H0V0.492539H6.4152V0Z" transform="translate(39.134 57.5336)" fill="#1DDBF3"/>
<path d="M7.17843 0H0V0.492539H7.17843V0Z" transform="translate(39.134 58.5511)" fill="#1DDBF3"/>
<path d="M4.60176 0H0V0.492537H4.60176V0Z" transform="translate(38.673 59.5068)" fill="#1DDBF3"/>
<path d="M7.09905 0H0V0.492539H7.09905V0Z" transform="translate(47.9936 55.6886)" fill="#1DDBF3"/>
<path d="M7.87551 0H0V0.492537H7.87551V0Z" transform="translate(47.9936 56.5952)" fill="#1DDBF3"/>
<path d="M6.4152 0H0V0.492539H6.4152V0Z" transform="translate(47.9936 57.5336)" fill="#1DDBF3"/>
<path d="M7.17843 0H0V0.492539H7.17843V0Z" transform="translate(47.9936 58.5511)" fill="#1DDBF3"/>
<path d="M4.60176 0H0V0.492537H4.60176V0Z" transform="translate(47.5316 59.5068)" fill="#1DDBF3"/>
<path d="M7.09905 0H0V0.492539H7.09905V0Z" transform="translate(56.9925 55.6489)" fill="#1DDBF3"/>
<path d="M7.87449 0H0V0.492537H7.87449V0Z" transform="translate(56.9925 56.5557)" fill="#1DDBF3"/>
<path d="M6.4152 0H0V0.492539H6.4152V0Z" transform="translate(56.9925 57.4939)" fill="#1DDBF3"/>
<path d="M7.17843 0H0V0.492539H7.17843V0Z" transform="translate(56.9925 58.5116)" fill="#1DDBF3"/>
<path d="M4.60074 0H0V0.492537H4.60074V0Z" transform="translate(56.5316 59.467)" fill="#1DDBF3"/>
<path d="M11.767 0H0V1.4308H11.767V0ZM11.2581 0.924016H0.50882V0.509837H11.2581V0.924016Z" transform="translate(39.131 39.4064)" fill="#1DDBF3"/>
</svg>
