<svg width="104" height="104" viewBox="0 0 104 104" fill="none" xmlns="http://www.w3.org/2000/svg">
<rect opacity="0.1" x="1" y="1" width="102" height="102" rx="51" stroke="#1DDBF3" stroke-width="2"/>
<path d="M46.1538 22.1538H45.8363C44.9538 22.1538 44.1674 21.5317 44.0271 20.6603C43.9588 20.2375 43.8775 19.8185 43.7834 19.4049C43.5877 18.5483 44.0751 17.6825 44.8855 17.3465L45.1735 17.2265C46.1151 16.8369 46.5637 15.7569 46.1723 14.8135C45.7828 13.872 44.7028 13.4234 43.7594 13.8148L43.464 13.9366C42.6499 14.2745 41.6898 14.0012 41.2228 13.2535C40.9975 12.8917 40.7612 12.5372 40.5139 12.1902C40.0025 11.4738 40.1206 10.4843 40.7428 9.86215L40.968 9.63692C41.6898 8.91508 41.6898 7.74646 40.968 7.02646C40.2462 6.30462 39.0775 6.30462 38.3575 7.02646L38.1342 7.25538C37.512 7.87754 36.5225 7.99569 35.8062 7.48431C35.4591 7.23692 35.1046 7.00062 34.7428 6.77539C33.9951 6.31015 33.7218 5.34831 34.0597 4.53415L34.1815 4.23877C34.5711 3.29723 34.1243 2.21723 33.1828 1.82585C32.2412 1.43631 31.1612 1.88308 30.7698 2.82462L30.6498 3.11262C30.3138 3.92308 29.448 4.41046 28.5914 4.21477C28.1778 4.12062 27.7588 4.03938 27.336 3.97108C26.4683 3.83262 25.8462 3.04615 25.8462 2.16369V1.84615C25.8462 0.827077 25.0191 0 24 0C22.9809 0 22.1538 0.827077 22.1538 1.84615V2.16369C22.1538 3.04615 21.5317 3.83262 20.6603 3.97292C20.2375 4.04123 19.8185 4.12246 19.4049 4.21662C18.5483 4.41231 17.6825 3.92492 17.3465 3.11446L17.2265 2.82646C16.8369 1.88492 15.7569 1.43631 14.8135 1.82769C13.872 2.21723 13.4234 3.29723 13.8148 4.24062L13.9366 4.536C14.2763 5.34831 14.0049 6.31015 13.2554 6.77539C12.8935 7.00062 12.5391 7.23692 12.1938 7.48246C11.4775 7.99385 10.488 7.87754 9.86585 7.25538L9.64062 7.03015C8.91877 6.30831 7.75015 6.30831 7.03015 7.03015C6.31015 7.752 6.31015 8.92062 7.03015 9.64062L7.25538 9.86585C7.87754 10.488 7.99385 11.4757 7.48246 12.1938C7.23692 12.5391 7.00062 12.8935 6.77539 13.2554C6.31015 14.0049 5.34831 14.2763 4.53415 13.9385L4.23877 13.8166C3.29723 13.4271 2.21723 13.8738 1.82585 14.8154C1.43631 15.7569 1.88308 16.8369 2.82462 17.2283L3.11262 17.3483C3.92308 17.6843 4.41046 18.5502 4.21477 19.4068C4.12062 19.8203 4.03938 20.2394 3.97108 20.6622C3.83262 21.5317 3.04615 22.1538 2.16369 22.1538H1.84615C0.827077 22.1538 0 22.9809 0 24C0 25.0191 0.827077 25.8462 1.84615 25.8462H2.16369C3.04615 25.8462 3.83262 26.4683 3.97292 27.3397C4.04123 27.7625 4.12246 28.1815 4.21662 28.5951C4.41231 29.4517 3.92492 30.3175 3.11446 30.6535L2.82646 30.7735C1.88492 31.1631 1.43631 32.2431 1.82769 33.1865C2.21723 34.128 3.29723 34.5766 4.24062 34.1852L4.536 34.0634C5.35015 33.7255 6.31015 33.9988 6.77723 34.7465C7.00246 35.1083 7.23877 35.4628 7.48615 35.8098C7.99754 36.5262 7.87938 37.5157 7.25723 38.1379L7.032 38.3631C6.31015 39.0849 6.31015 40.2535 7.032 40.9735C7.75385 41.6935 8.92246 41.6954 9.64246 40.9735L9.86769 40.7483C10.4898 40.1262 11.4794 40.008 12.1957 40.5194C12.5428 40.7668 12.8972 41.0031 13.2591 41.2283C14.0068 41.6935 14.28 42.6554 13.9422 43.4695L13.8203 43.7649C13.4308 44.7065 13.8775 45.7865 14.8191 46.1778C15.7606 46.5674 16.8406 46.1206 17.232 45.1791L17.352 44.8911C17.688 44.0806 18.5538 43.5932 19.4105 43.7889C19.824 43.8831 20.2431 43.9643 20.6658 44.0326C21.5317 44.1674 22.1538 44.9538 22.1538 45.8363V46.1538C22.1538 47.1729 22.9809 48 24 48C25.0191 48 25.8462 47.1729 25.8462 46.1538V45.8363C25.8462 44.9538 26.4683 44.1674 27.3397 44.0271C27.7625 43.9588 28.1815 43.8775 28.5951 43.7834C29.4517 43.5877 30.3175 44.0751 30.6535 44.8855L30.7735 45.1735C31.1631 46.1151 32.2431 46.5637 33.1865 46.1723C34.128 45.7828 34.5766 44.7028 34.1852 43.7594L34.0634 43.464C33.7255 42.6499 33.9988 41.6898 34.7465 41.2228C35.1083 40.9975 35.4628 40.7612 35.8098 40.5139C36.5262 40.0025 37.5157 40.1206 38.1379 40.7428L38.3631 40.968C39.0849 41.6898 40.2535 41.6898 40.9735 40.968C41.6935 40.2462 41.6954 39.0775 40.9735 38.3575L40.7483 38.1323C40.1262 37.5102 40.008 36.5206 40.5194 35.8043C40.7668 35.4572 41.0031 35.1028 41.2283 34.7409C41.6935 33.9932 42.6554 33.72 43.4695 34.0578L43.7649 34.1797C44.7065 34.5692 45.7865 34.1225 46.1778 33.1809C46.5674 32.2394 46.1206 31.1594 45.1791 30.768L44.8911 30.648C44.0806 30.312 43.5932 29.4462 43.7889 28.5895C43.8831 28.176 43.9643 27.7569 44.0326 27.3342C44.1674 26.4683 44.9538 25.8462 45.8363 25.8462H46.1538C47.1729 25.8462 48 25.0191 48 24C48 22.9809 47.1729 22.1538 46.1538 22.1538ZM24 38.7692C15.8437 38.7692 9.23077 32.1563 9.23077 24C9.23077 15.8437 15.8437 9.23077 24 9.23077C32.1563 9.23077 38.7692 15.8437 38.7692 24C38.7692 32.1563 32.1563 38.7692 24 38.7692Z" transform="translate(28 28)" fill="#1DDBF3"/>
<path d="M16.6154 0H0V3.69231H16.6154V0Z" transform="translate(52 50.1538)" fill="#1DDBF3"/>
<path d="M16.615 0H0V3.69223H16.615V0Z" transform="translate(45.2914 36.6873) rotate(59.9993)" fill="#1DDBF3"/>
<path d="M17.5381 0H0V3.69223H17.5381V0Z" transform="translate(54.0606 52.1228) rotate(120.001)" fill="#1DDBF3"/>
<path d="M3.69231 7.38461C5.73151 7.38461 7.38461 5.73151 7.38461 3.69231C7.38461 1.6531 5.73151 0 3.69231 0C1.6531 0 0 1.6531 0 3.69231C0 5.73151 1.6531 7.38461 3.69231 7.38461Z" transform="translate(48.3077 48.3079)" fill="#1DDBF3"/>
</svg>
