<svg width="104" height="104" viewBox="0 0 104 104" fill="none" xmlns="http://www.w3.org/2000/svg">
<rect opacity="0.1" x="1" y="1" width="102" height="102" rx="51" stroke="#1DDBF3" stroke-width="2"/>
<path d="M17.28 0C7.73568 0 0 7.73568 0 17.28C0 26.8243 7.73568 34.56 17.28 34.56C26.8243 34.56 34.56 26.8243 34.56 17.28C34.56 7.73568 26.8243 0 17.28 0ZM19.2 24.9869V26.88H15.36V25.0022C12.6835 24.4934 11.0438 22.8826 10.9939 20.5094H14.6342C14.7283 21.6019 15.8189 22.2989 17.399 22.2989C18.8237 22.2989 19.8029 21.6115 19.8029 20.6227C19.8029 19.7914 19.1462 19.344 17.4317 19.0003L15.456 18.6048C12.7104 18.0845 11.2954 16.5869 11.2954 14.2272C11.2954 11.8522 12.8544 10.1587 15.3619 9.59232V7.68H19.2019V9.60576C21.6365 10.1779 23.2262 11.8234 23.2762 14.0506H19.751C19.6685 12.9907 18.6605 12.2515 17.3165 12.2515C15.9725 12.2515 15.0912 12.887 15.0912 13.8854C15.0912 14.7072 15.7574 15.1853 17.3376 15.4963L19.273 15.8707C22.2374 16.4429 23.568 17.785 23.568 20.1658C23.5661 22.7309 21.9418 24.4435 19.2 24.9869Z" transform="translate(25 34.6799)" fill="#1DDBF3"/>
<path d="M17.7062 0C17.9462 1.26912 18.0845 2.57472 18.0845 3.91488C18.0845 7.41888 17.2147 10.7174 15.6979 13.6282C16.368 14.327 16.6906 15.2371 16.6906 16.4006C16.6906 18.9658 15.0662 20.6784 12.3245 21.2218V23.1149H8.48448V21.5942C5.97504 23.2358 3.09504 24.3437 0 24.791C2.73792 27.3178 6.384 28.8749 10.4045 28.8749C18.887 28.8749 25.7645 21.9974 25.7645 13.5149C25.7645 7.67424 22.5043 2.59776 17.7062 0Z" transform="translate(45.3156 48.0452)" fill="#1DDBF3"/>
<path d="M8.7744 7.67424V5.76H12.6144V7.68576C15.049 8.25792 16.6387 9.90336 16.6886 12.1306H13.1635C13.081 11.0707 12.073 10.3315 10.729 10.3315C10.6675 10.3315 10.6234 10.3488 10.5638 10.3526C11.6621 11.497 12.624 12.768 13.4438 14.135C15.4272 14.6669 16.5197 15.6422 16.8557 17.1629C19.6934 18.4838 22.1491 20.473 24.0288 22.9363C25.3094 20.7014 26.0544 18.1229 26.0544 15.36C26.0544 6.87744 19.177 0 10.6944 0C6.52608 0 2.7648 1.67808 0 4.37376C2.89152 5.02656 5.5488 6.27456 7.85472 7.9776C8.1504 7.86624 8.44416 7.74912 8.7744 7.67424Z" transform="translate(46.9456 27)" fill="#1DDBF3"/>
</svg>
