<svg width="104" height="104" viewBox="0 0 104 104" fill="none" xmlns="http://www.w3.org/2000/svg">
<rect opacity="0.1" x="1" y="1" width="102" height="102" rx="51" stroke="#1DDBF3" stroke-width="2"/>
<path d="M24 0C23.9885 0 23.9885 0 23.9769 0C23.9769 0 23.9769 0 23.9654 0C23.9538 0 23.9423 0 23.9423 0C10.7077 0.0346154 0 10.7654 0 24C0 37.2346 10.7077 47.9654 23.9423 48C23.9538 48 23.9654 48 23.9654 48H23.9769C23.9885 48 23.9885 48 24 48C37.2577 48 48 37.2577 48 24C48 10.7423 37.2577 0 24 0ZM24 46.0846C23.9885 46.0846 23.9885 46.0846 23.9769 46.0846C23.9769 46.0846 23.9769 46.0846 23.9654 46.0846C23.9538 46.0846 23.9423 46.0846 23.9423 46.0846C11.7808 46.05 1.91538 36.1731 1.91538 24C1.91538 11.8269 11.7692 1.95 23.9423 1.92692C23.9538 1.92692 23.9538 1.92692 23.9654 1.92692H23.9769C23.9885 1.92692 23.9885 1.92692 24 1.92692C36.1962 1.92692 46.0846 11.8154 46.0846 24.0115C46.0846 36.1962 36.1962 46.0846 24 46.0846Z" transform="translate(28 28)" fill="#1DDBF3"/>
<path d="M6.68077 0C4.52308 0.519231 2.29615 0.83077 0 0.9V8.75769H7.8C7.73077 5.51538 7.32692 2.57308 6.68077 0Z" transform="translate(52.9692 42.2847)" fill="#1DDBF3"/>
<path d="M0 0V9.45C2.13462 9.38077 4.21154 9.10385 6.20769 8.61923C4.69616 3.84231 2.34231 0.703846 0 0Z" transform="translate(52.9577 31.9807)" fill="#1DDBF3"/>
<path d="M0 8.63077C2.01923 9.11539 4.10769 9.40384 6.25385 9.47308V0C3.91154 0.680769 1.52308 3.81923 0 8.63077Z" transform="translate(44.7769 31.9576)" fill="#1DDBF3"/>
<path d="M9.68077 5.48077C7.07308 2.82692 3.73846 0.888462 0 0C1.70769 1.76538 3.13846 4.46538 4.16538 7.76538C6.09231 7.17692 7.93846 6.41538 9.68077 5.48077Z" transform="translate(56.6962 32.373)" fill="#1DDBF3"/>
<path d="M1.18846 11.8385H10.8C10.5923 7.36154 8.91923 3.25385 6.24231 0C4.26923 1.08462 2.18077 1.97308 0 2.63077C0.703846 5.4 1.11923 8.52692 1.18846 11.8385Z" transform="translate(61.3462 39.2039)" fill="#1DDBF3"/>
<path d="M0 8.76923H7.86923V0.91154C5.55 0.842309 3.3 0.530769 1.13077 0C0.473077 2.57308 0.0692308 5.52692 0 8.76923Z" transform="translate(43.1731 42.2731)" fill="#1DDBF3"/>
<path d="M7.81154 0H0V7.84615C2.29615 7.91538 4.53462 8.21539 6.69231 8.74616C7.33846 6.18462 7.74231 3.23077 7.81154 0Z" transform="translate(52.9577 52.9576)" fill="#1DDBF3"/>
<path d="M1.13077 8.7577C3.3 8.22693 5.55 7.91538 7.86923 7.84615V0H0C0.0692308 3.24231 0.473077 6.19616 1.13077 8.7577Z" transform="translate(43.1731 52.9576)" fill="#1DDBF3"/>
<path d="M6.26539 9.47308V0C4.11923 0.0692308 2.01923 0.357691 0 0.842306C1.52308 5.65384 3.91154 8.80385 6.26539 9.47308Z" transform="translate(44.7769 62.5577)" fill="#1DDBF3"/>
<path d="M0 7.77692C3.73846 6.87692 7.07308 4.95 9.69231 2.28461C7.95 1.35 6.10384 0.588462 4.17692 0C3.15 3.31154 1.70769 6 0 7.77692Z" transform="translate(56.6962 63.85)" fill="#1DDBF3"/>
<path d="M9.61154 0C5.90769 0.9 2.59615 2.82692 0 5.46923C1.73077 6.39231 3.55385 7.15385 5.45769 7.73077C6.48462 4.44231 7.91539 1.76538 9.61154 0Z" transform="translate(37.6231 32.3961)" fill="#1DDBF3"/>
<path d="M0 9.20769C2.19231 9.86539 4.28077 10.7538 6.25385 11.8385C8.93077 8.58462 10.6038 4.47692 10.8115 0H1.2C1.11923 3.31154 0.703846 6.42693 0 9.20769Z" transform="translate(61.3462 52.9576)" fill="#1DDBF3"/>
<path d="M0 0V9.46154C2.34231 8.75769 4.69616 5.61923 6.20769 0.830771C4.21154 0.346155 2.13462 0.0692308 0 0Z" transform="translate(52.9577 62.5577)" fill="#1DDBF3"/>
<path d="M10.7538 2.61923C8.58462 1.96154 6.50769 1.08462 4.55769 0C1.88077 3.25385 0.207692 7.36154 0 11.8385H9.56538C9.62308 8.51538 10.05 5.38846 10.7538 2.61923Z" transform="translate(31.8538 39.2039)" fill="#1DDBF3"/>
<path d="M9.56538 0H0C0.207692 4.47692 1.88077 8.58462 4.55769 11.8385C6.50769 10.7654 8.58462 9.87693 10.7538 9.21923C10.0615 6.45 9.63461 3.32308 9.56538 0Z" transform="translate(31.8423 52.9576)" fill="#1DDBF3"/>
<path d="M0 2.27308C2.59615 4.91539 5.90769 6.84231 9.62308 7.74231C7.92692 5.97692 6.49615 3.28846 5.46923 0C3.56538 0.588462 1.73077 1.35 0 2.27308Z" transform="translate(37.6115 63.8616)" fill="#1DDBF3"/>
</svg>
