<svg width="104" height="104" viewBox="0 0 104 104" fill="none" xmlns="http://www.w3.org/2000/svg">
<rect opacity="0.1" x="1" y="1" width="102" height="102" rx="51" stroke="#1DDBF3" stroke-width="2"/>
<path d="M12.2642 12.2508L12.4023 12.2277L12.4253 12.0896C12.7246 10.3633 13.7143 8.84414 15.1529 7.85438L7.55708 0.258542C7.00466 -0.293883 6.04942 0.0974177 6.04942 0.88002L6.00339 6.25465L0.904964 6.16258C0.110853 6.15107 -0.303465 7.10631 0.260468 7.67024L7.78726 15.197C7.79877 15.1855 7.79877 15.1625 7.81028 15.151C8.81155 13.5973 10.4343 12.5385 12.2642 12.2508Z" transform="translate(24 24)" fill="#1DDBF3"/>
<path d="M14.8925 7.52679L7.36566 0C7.35416 0.0115089 7.35416 0.0345259 7.34265 0.0460347C6.34138 1.61124 4.71863 2.67005 2.88872 2.95777L2.75061 2.98079L2.7276 3.1189C2.42837 4.84522 1.43861 6.36439 0 7.35416L7.59584 14.95C8.14827 15.5024 9.1035 15.1111 9.1035 14.3285L9.14954 8.95389L14.248 9.04595C15.0421 9.05746 15.4449 8.09072 14.8925 7.52679Z" transform="translate(64.8522 64.9078)" fill="#1DDBF3"/>
<path d="M35.1325 32.0309C36.6862 31.7892 37.6759 30.2355 37.2501 28.7279L36.9624 27.7381C36.6516 26.6563 37.066 25.5054 37.9982 24.8609L38.8498 24.274C40.1503 23.3763 40.369 21.5579 39.3217 20.3725L38.6312 19.6014C37.8831 18.7612 37.7565 17.5413 38.3089 16.563L38.8153 15.6653C39.5979 14.2958 38.9995 12.5579 37.5493 11.948L36.5941 11.5567C35.5583 11.1193 34.9138 10.0835 34.9829 8.95568L35.0519 7.93139C35.167 6.36618 33.8665 5.05418 32.3013 5.13474L31.277 5.19228C30.1491 5.24983 29.1133 4.59382 28.699 3.54652L28.3192 2.59128C27.7323 1.12966 26.006 0.50818 24.6249 1.26776L23.7272 1.76264C22.7374 2.30356 21.5175 2.15395 20.6889 1.39436L19.9293 0.692322C18.7669 -0.378001 16.937 -0.182351 16.0278 1.10664L15.4293 1.94679C14.7733 2.86749 13.6109 3.2588 12.5406 2.93655L11.5508 2.63732C10.0432 2.17696 8.47797 3.14371 8.21327 4.6974L8.04064 5.71018C7.84499 6.81503 6.97031 7.67819 5.86546 7.85083L4.85269 8.01195C3.29899 8.25364 2.30923 9.80733 2.73506 11.315L3.02278 12.3048C3.33352 13.3866 2.9192 14.5375 1.98698 15.182L1.13533 15.7689C-0.165173 16.6666 -0.383842 18.485 0.663463 19.6704L1.35399 20.4415C2.10207 21.2817 2.22867 22.5016 1.67624 23.4798L1.16985 24.3775C0.387251 25.7471 0.985711 27.4849 2.43583 28.0949L3.39106 28.4862C4.42686 28.9235 5.07135 29.9593 5.0023 31.0872L4.93325 32.1115C4.81816 33.6767 6.11866 34.9887 7.68386 34.9081L8.70815 34.8506C9.83602 34.793 10.8718 35.4491 11.2861 36.4964L11.6659 37.4516C12.2529 38.9132 13.9792 39.5347 15.3603 38.7751L16.258 38.2802C17.2477 37.7393 18.4677 37.8889 19.2963 38.6485L20.0559 39.3506C21.2183 40.4209 23.0482 40.2252 23.9574 38.9362L24.5558 38.0961C25.2118 37.1754 26.3742 36.7841 27.4446 37.1063L28.4343 37.4056C29.942 37.8659 31.5072 36.8992 31.7719 35.3455L31.9445 34.3327C32.1402 33.2278 33.0148 32.3647 34.1197 32.192L35.1325 32.0309ZM28.7681 28.7969C23.9229 33.6422 16.0623 33.6422 11.2171 28.7969C6.37185 23.9517 6.37185 16.0912 11.2171 11.2459C16.0623 6.40071 23.9229 6.40071 28.7681 11.2459C33.6133 16.1027 33.6133 23.9517 28.7681 28.7969Z" transform="translate(31.9985 32.0253)" fill="#1DDBF3"/>
<path d="M12.1643 5.50411L10.1962 0.681899C9.82796 -0.2273 8.53897 -0.2273 8.17069 0.681899L6.20268 5.50411L1.01218 5.8839C0.0339313 5.95295 -0.357369 7.17289 0.390706 7.80588L4.37277 11.1665L3.12981 16.2188C2.89964 17.1741 3.93543 17.9222 4.76407 17.4043L9.18347 14.6536L13.6029 17.4043C14.4315 17.9222 15.4788 17.1626 15.2371 16.2188L13.9942 11.1665L17.9762 7.80588C18.7243 7.17289 18.333 5.95295 17.3548 5.8839L12.1643 5.50411Z" transform="translate(42.8134 42.7734)" fill="#1DDBF3"/>
</svg>
