<svg width="104" height="104" viewBox="0 0 104 104" fill="none" xmlns="http://www.w3.org/2000/svg">
<rect opacity="0.1" x="1" y="1" width="102" height="102" rx="51" stroke="#1DDBF3" stroke-width="2"/>
<path d="M0 0V4.17391C4.88765 4.17391 8.76939 2.39374 11.735 0H0Z" transform="translate(50.9565 75.0869)" fill="#1DDBF3"/>
<path d="M0 0V4.17391C0 9.3913 4.17391 10.4348 4.17391 10.4348C4.17391 10.4348 8.34783 22.9565 20.8696 22.9565" transform="translate(30.087 54.2175)" stroke="#1DDBF3" stroke-width="2" stroke-linecap="round"/>
<path d="M45.913 31.3043H39.6522C39.6522 18.2817 33.3913 12.5217 33.3913 12.5217C27.1304 27.1304 6.26087 16.6957 6.26087 31.3043H0C0 31.3043 0 31.0581 0 22.9565C0 8.34783 12.5217 0 22.9565 0C31.3043 0 33.3913 4.17391 33.3913 4.17391C41.7391 4.17391 45.913 14.6087 45.913 22.9565V31.3043Z" transform="translate(28 25)" fill="#1DDBF3"/>
<path d="M5.21739 0C4.85009 0 3.49774 0 3.13043 0C1.40243 0 0 1.40243 0 3.13043C0 4.85844 1.40243 6.26087 3.13043 6.26087C3.49774 6.26087 4.85009 6.26087 5.21739 6.26087C6.94539 6.26087 8.34782 4.85844 8.34782 3.13043C8.34782 1.40243 6.94539 0 5.21739 0Z" transform="translate(46.7826 64.6521)" fill="#1DDBF3"/>
<path d="M0 14.6087H10.4348C15.0449 14.6087 18.7826 10.871 18.7826 6.26087V0" transform="translate(53.0435 54.2175)" stroke="#1DDBF3" stroke-width="2" stroke-linecap="round"/>
<path d="M4.17391 10.4348H0V0H4.17391C6.48 0 8.34783 1.86783 8.34783 4.17391V6.26087C8.34783 8.56696 6.48 10.4348 4.17391 10.4348Z" transform="translate(67.6521 52.1304)" fill="#1DDBF3"/>
</svg>
