<svg width="104" height="104" viewBox="0 0 104 104" fill="none" xmlns="http://www.w3.org/2000/svg">
<rect opacity="0.1" x="1" y="1" width="102" height="102" rx="51" stroke="#1DDBF3" stroke-width="2"/>
<path d="M5.00001 0H1.00002C0.448026 0 0 0.448026 0 1.00002V12.9999C0 13.5519 0.448026 13.9999 1.00002 13.9999H5.00001C5.552 13.9999 6.00003 13.5519 6.00003 12.9999V1.00002C6.00003 0.448026 5.552 0 5.00001 0Z" transform="translate(43.9998 46.9998)" fill="#1DDBF3"/>
<path d="M5.00001 0H1.00002C0.448026 0 0 0.448026 0 1.00002V6.99995C0 7.55195 0.448026 7.99997 1.00002 7.99997H5.00001C5.552 7.99997 6.00003 7.55195 6.00003 6.99995V1.00002C5.99993 0.448026 5.552 0 5.00001 0Z" transform="translate(35.9999 52.9998)" fill="#1DDBF3"/>
<path d="M5.00001 0H1.00002C0.448026 0 0 0.448026 0 1.00002V18.9998C0 19.5518 0.448026 19.9998 1.00002 19.9998H5.00001C5.552 19.9998 6.00003 19.5518 6.00003 18.9998V1.00002C6.00003 0.448026 5.552 0 5.00001 0Z" transform="translate(51.9996 40.9999)" fill="#1DDBF3"/>
<path d="M47.4134 44.5855L35.4756 32.6476C38.2996 29.1996 39.9996 24.7957 39.9996 19.9997C39.9996 8.97187 31.0277 0 19.9998 0C8.97196 0 0 8.97187 0 19.9997C0 31.0276 8.97187 39.9995 19.9997 39.9995C24.7957 39.9995 29.1996 38.2995 32.6476 35.4755L44.5855 47.4135C44.9755 47.8034 45.4875 47.9995 45.9995 47.9995C46.5116 47.9995 47.0235 47.8034 47.4135 47.4135C48.1955 46.6315 48.1955 45.3675 47.4134 44.5855ZM19.9997 35.9996C11.1779 35.9996 3.99989 28.8217 3.99989 19.9997C3.99989 11.1778 11.1779 3.99989 19.9997 3.99989C28.8216 3.99989 35.9996 11.1779 35.9996 19.9997C35.9996 28.8216 28.8217 35.9996 19.9997 35.9996Z" transform="translate(28 31)" fill="#1DDBF3"/>
</svg>
