<svg width="40" height="40" viewBox="0 0 40 40" fill="none" xmlns="http://www.w3.org/2000/svg">
<rect width="40" height="40" rx="20" fill="#1DDBF3"/>
<path d="M17.5898 0.72511C17.7134 0.30742 17.5898 0 16.995 0H15.0268C14.5256 0 14.295 0.26398 14.1714 0.558034C14.1714 0.558034 13.1689 3.00069 11.7521 4.58457C11.2943 5.04236 11.0838 5.18938 10.8332 5.18938C10.7096 5.18938 10.5191 5.04236 10.5191 4.62467V0.72511C10.5191 0.223882 10.3788 0 9.96442 0H6.87017C6.55607 0 6.36894 0.233907 6.36894 0.451105C6.36894 0.925601 7.07734 1.03587 7.15086 2.37248V5.27292C7.15086 5.90781 7.03724 6.02476 6.78663 6.02476C6.11833 6.02476 4.49435 3.57209 3.53199 0.765209C3.33818 0.220541 3.14771 0 2.64314 0H0.674987C0.113612 0 0 0.26398 0 0.558034C0 1.07931 0.668304 3.66899 3.11096 7.09071C4.73828 9.42643 7.03056 10.6929 9.11567 10.6929C10.3687 10.6929 10.5225 10.4122 10.5225 9.92766C10.5225 7.69552 10.4088 7.48501 11.037 7.48501C11.3278 7.48501 11.829 7.63204 12.9985 8.75813C14.3351 10.0947 14.5557 10.6929 15.3042 10.6929H17.2723C17.8337 10.6929 18.1177 10.4122 17.954 9.85749C17.5797 8.6913 15.0502 6.29209 14.9366 6.13169C14.6459 5.75744 14.7294 5.59037 14.9366 5.25621C14.9399 5.25287 17.3425 1.87125 17.5898 0.72511V0.72511Z" transform="translate(11 15)" fill="white"/>
</svg>
