<svg width="40" height="40" viewBox="0 0 40 40" fill="none" xmlns="http://www.w3.org/2000/svg">
<path d="M24.1579 29.4211C23.9474 29.6316 23.6842 29.7368 23.4211 29.7368C23.1579 29.7368 22.8947 29.6316 22.6842 29.4211L13.7368 20.5263C13.3158 20.1053 13.3158 19.4737 13.7368 19.0526L22.2105 10.5789C22.6316 10.1579 23.3158 10.1579 23.6842 10.5789C24.1053 11 24.1053 11.6316 23.6842 12.0526L16 19.7895L24.1579 27.9474C24.5263 28.3684 24.5263 29 24.1579 29.4211ZM40 20C40 31.0526 31.0526 40 20 40C8.94737 40 0 31.0526 0 20C0 8.94737 8.94737 0 20 0C31.0526 0 40 8.94737 40 20ZM37.8947 20C37.8947 10.1053 29.8947 2.10526 20 2.10526C10.1053 2.10526 2.10526 10.1053 2.10526 20C2.10526 29.8947 10.1053 37.8947 20 37.8947C29.8947 37.8947 37.8947 29.8947 37.8947 20Z" transform="translate(40) scale(-1 1)" fill="white"/>
</svg>
