<svg width="150" height="48" viewBox="0 0 150 48" fill="none" xmlns="http://www.w3.org/2000/svg">
<path d="M8.442 32.384C12.762 32.384 15.29 29.888 15.45 25.344H11.514C11.354 27.584 10.394 28.576 8.442 28.576C6.778 28.576 5.786 27.52 5.786 25.28V16.32C5.786 14.016 6.778 12.96 8.41 12.96C10.33 12.96 11.29 13.952 11.418 16.256H15.354C15.162 11.68 12.73 9.152 8.442 9.152C4.25 9.152 1.722 11.68 1.722 16.32V25.28C1.722 29.888 4.282 32.384 8.442 32.384ZM24.5075 9.6H18.2995V32H22.2355V24.48H24.5075C29.0195 24.48 31.6755 21.76 31.6755 17.056C31.6755 12.352 29.0195 9.6 24.5075 9.6ZM24.4755 20.768H22.2355V13.344H24.4755C26.5875 13.344 27.6435 14.592 27.6435 17.056C27.6435 19.52 26.5875 20.768 24.4755 20.768ZM42.4522 32H46.5483L41.0442 9.6H36.8203L31.3162 32H35.4123L36.3082 27.936H41.5562L42.4522 32ZM37.1083 24.192L38.0043 20.032C38.3243 18.496 38.6762 16.032 38.8682 14.528H38.9643C39.1882 16.032 39.5402 18.496 39.8603 20.032L40.7563 24.192H37.1083Z" transform="translate(50 3)" fill="white"/>
<path d="M54.7515 32.32C58.3995 32.32 60.9595 29.92 60.9595 25.856V20.064H54.7195V21.856H59.0715V25.856C59.0715 28.896 57.3115 30.464 54.7515 30.464C52.2235 30.464 50.4635 28.896 50.4635 25.536V16.064C50.4635 12.704 52.0315 11.136 54.5915 11.136C57.0875 11.136 58.6875 12.576 58.8475 15.68H60.7675C60.6075 11.552 58.2075 9.28 54.5915 9.28C50.9115 9.28 48.5435 11.616 48.5435 16.032V25.536C48.5435 29.92 51.1035 32.32 54.7515 32.32ZM73.6345 26.848C73.3785 29.312 72.1625 30.464 69.7305 30.464C67.5225 30.464 66.1785 29.152 66.1785 26.336V24.512H75.2985V20.8C75.2985 16.96 73.0585 14.816 69.6985 14.816C66.4345 14.816 64.2585 16.96 64.2585 20.8V26.336C64.2585 30.176 66.4025 32.32 69.6665 32.32C73.1865 32.32 75.2665 30.368 75.5225 26.848H73.6345ZM69.7305 16.672C72.0345 16.672 73.4105 17.984 73.4105 20.8V22.752H66.1785V20.8C66.1785 17.984 67.5225 16.672 69.7305 16.672ZM85.3208 14.816C83.2727 14.816 81.8327 15.776 80.9688 17.28L80.6488 15.2H79.0807V32H80.9688V21.824C80.9688 18.56 82.5047 16.608 84.8408 16.608C87.0487 16.608 87.9447 18.144 87.9447 21.536V32H89.8328V21.248C89.8328 16.64 88.0407 14.816 85.3208 14.816Z" transform="translate(50 3)" fill="#2FF2FF"/>
<path d="M38.6288 12.7617C37.8099 10.6569 36.6536 8.72464 35.2122 7.0359C32.229 3.53838 28.0637 1.09507 23.3333 0.300139C22.2473 0.117209 21.138 0 20 0C18.8619 0 17.7525 0.117209 16.6667 0.300139C11.9362 1.09507 7.77214 3.53771 4.78775 7.03456C3.34758 8.72405 2.19131 10.6557 1.37244 12.7604C0.497302 15.0079 0 17.4433 0 20C0 22.3496 0.425721 24.5944 1.1705 26.6888C1.92826 28.8191 3.02333 30.7865 4.41268 32.5151C7.41667 36.2521 11.7342 38.8711 16.6667 39.6999C17.7525 39.8828 18.8619 40 20 40C21.138 40 22.2473 39.8828 23.3333 39.6999C28.2656 38.871 32.5833 36.252 35.5872 32.5156C36.9766 30.7872 38.0717 28.8197 38.8293 26.6895C39.5741 24.5951 40 22.3496 40 20C40 17.444 39.5025 15.0086 38.6288 12.7617ZM36.2825 14.1153L32.7851 16.1341C32.1224 13.9466 30.9127 11.9975 29.3151 10.4401L32.845 8.40231C34.3359 10.0521 35.5104 11.9851 36.2825 14.1153ZM30.694 20C30.694 25.8965 25.897 30.694 20 30.694C14.1028 30.694 9.30591 25.8965 9.30591 20C9.30591 14.1036 14.1029 9.30599 20 9.30599C25.897 9.30599 30.694 14.1036 30.694 20ZM20 2.66668C21.1405 2.66668 22.2539 2.78456 23.3333 2.99545V7.07743C22.2656 6.8014 21.1523 6.63932 20 6.63932C18.8476 6.63932 17.7343 6.80149 16.6667 7.07743V2.99545C17.746 2.78456 18.8593 2.66668 20 2.66668ZM7.15613 8.40173L10.6861 10.4401C9.08857 11.9968 7.87763 13.946 7.21482 16.1334L3.71738 14.1147C4.49079 11.9844 5.66531 10.0514 7.15613 8.40173ZM3.51561 25.3347L7.06504 23.2859C7.63015 25.5092 8.74867 27.5086 10.2733 29.1316L6.7577 31.1608C5.32683 29.4649 4.2161 27.4929 3.51561 25.3347ZM20 37.3333C18.8593 37.3333 17.746 37.2154 16.6667 37.0045V32.9226C17.7343 33.1987 18.8476 33.3607 20 33.3607C21.1523 33.3607 22.2656 33.1987 23.3333 32.9226V37.0045C22.2539 37.2154 21.1405 37.3333 20 37.3333ZM33.2408 31.1608L29.7265 29.1316C31.2512 27.5092 32.3698 25.5092 32.9348 23.2859L36.4842 25.3354C35.7837 27.4929 34.6731 29.4649 33.2408 31.1608Z" transform="translate(0 3)" fill="#5207FB"/>
<path d="M5.45961 6.8398C3.75907 6.19984 3.05983 5.7799 3.05983 5.11967C3.05983 4.55983 3.47919 3.99999 4.77988 3.99999C5.52985 3.99999 6.13934 4.1244 6.62375 4.27535C6.89843 4.36066 7.19657 4.32885 7.44923 4.18811C7.70056 4.04813 7.88282 3.81053 7.95441 3.53115L7.97266 3.46225C8.13533 2.82488 7.75255 2.17504 7.11452 2.01036C6.62492 1.88344 6.04289 1.79101 5.33989 1.7597V1.00881C5.33989 0.498447 4.96164 0.0519642 4.45353 0.00441071C3.87084 -0.0500916 3.38015 0.407694 3.38015 0.979843V1.89968C1.23966 2.31954 0 3.69977 0 5.4595C0 7.39964 1.45959 8.39961 3.60025 9.11961C5.07951 9.61959 5.71998 10.0995 5.71998 10.8592C5.71998 11.6593 4.94012 12.0995 3.79942 12.0995C2.98306 12.0995 2.21341 11.9335 1.54557 11.6965C1.26695 11.5969 0.958269 11.6209 0.696474 11.7602C0.434846 11.8996 0.243378 12.1417 0.170457 12.4296L0.161415 12.4635C-0.0130597 13.1451 0.380094 13.8423 1.05329 14.0455C1.71343 14.244 2.48961 14.384 3.27985 14.4192V15.3124C3.27985 15.8536 3.71855 16.2923 4.25972 16.2923C4.80089 16.2923 5.23959 15.8536 5.23959 15.3124V14.2792C7.53907 13.8795 8.79948 12.3593 8.79948 10.5794C8.79948 8.77995 7.83988 7.67969 5.45961 6.8398Z" transform="translate(15.6706 14.707)" fill="white"/>
</svg>
