<svg width="18" height="18" viewBox="0 0 18 18" fill="none" xmlns="http://www.w3.org/2000/svg">
<path d="M13.7461 10.957C13.7461 10.5664 13.6699 10.209 13.5176 9.88477C13.3652 9.56055 13.1758 9.29297 12.9492 9.08203C12.7227 8.87109 12.4375 8.67969 12.0938 8.50781C11.75 8.33594 11.4277 8.20312 11.127 8.10938C10.8262 8.01562 10.4844 7.92578 10.1016 7.83984L8.88281 7.55859C8.64844 7.50391 8.47656 7.46289 8.36719 7.43555C8.25781 7.4082 8.12109 7.36328 7.95703 7.30078C7.79297 7.23828 7.67578 7.17578 7.60547 7.11328C7.53516 7.05078 7.4707 6.96875 7.41211 6.86719C7.35352 6.76562 7.32422 6.64844 7.32422 6.51562C7.32422 5.91406 7.88672 5.61328 9.01172 5.61328C9.34766 5.61328 9.64844 5.66016 9.91406 5.75391C10.1797 5.84766 10.3906 5.95898 10.5469 6.08789C10.7031 6.2168 10.8516 6.34766 10.9922 6.48047C11.1328 6.61328 11.2891 6.72656 11.4609 6.82031C11.6328 6.91406 11.8203 6.96094 12.0234 6.96094C12.3906 6.96094 12.6855 6.83594 12.9082 6.58594C13.1309 6.33594 13.2422 6.03516 13.2422 5.68359C13.2422 5.25391 13.0234 4.86523 12.5859 4.51758C12.1484 4.16992 11.5937 3.90625 10.9219 3.72656C10.25 3.54688 9.53906 3.45703 8.78906 3.45703C8.25781 3.45703 7.74219 3.51758 7.24219 3.63867C6.74219 3.75977 6.27539 3.94336 5.8418 4.18945C5.4082 4.43555 5.06055 4.77539 4.79883 5.20898C4.53711 5.64258 4.40625 6.14453 4.40625 6.71484C4.40625 7.19141 4.48047 7.60742 4.62891 7.96289C4.77734 8.31836 4.99609 8.61328 5.28516 8.84766C5.57422 9.08203 5.88672 9.27148 6.22266 9.41602C6.55859 9.56055 6.96094 9.6875 7.42969 9.79688L9.14062 10.2188C9.84375 10.3906 10.2812 10.5313 10.4531 10.6406C10.7031 10.7969 10.8281 11.0313 10.8281 11.3438C10.8281 11.6484 10.6719 11.9004 10.3594 12.0996C10.0469 12.2988 9.63672 12.3984 9.12891 12.3984C8.73047 12.3984 8.37305 12.3359 8.05664 12.2109C7.74023 12.0859 7.48633 11.9355 7.29492 11.7598C7.10352 11.584 6.92578 11.4082 6.76172 11.2324C6.59766 11.0566 6.41797 10.9063 6.22266 10.7812C6.02734 10.6562 5.81641 10.5938 5.58984 10.5938C5.19922 10.5938 4.9043 10.7109 4.70508 10.9453C4.50586 11.1797 4.40625 11.4727 4.40625 11.8242C4.40625 12.543 4.88281 13.1582 5.83594 13.6699C6.78906 14.1816 7.92578 14.4375 9.24609 14.4375C9.81641 14.4375 10.3633 14.3652 10.8867 14.2207C11.4102 14.0762 11.8887 13.8672 12.3223 13.5938C12.7559 13.3203 13.1016 12.9551 13.3594 12.498C13.6172 12.041 13.7461 11.5273 13.7461 10.957ZM18 13.5C18 14.7422 17.5605 15.8027 16.6816 16.6816C15.8027 17.5605 14.7422 18 13.5 18C12.4844 18 11.5703 17.6875 10.7578 17.0625C10.1563 17.1875 9.57031 17.25 9 17.25C7.88281 17.25 6.81445 17.0332 5.79492 16.5996C4.77539 16.166 3.89648 15.5801 3.1582 14.8418C2.41992 14.1035 1.83398 13.2246 1.40039 12.2051C0.966797 11.1855 0.75 10.1172 0.75 9C0.75 8.42969 0.8125 7.84375 0.9375 7.24219C0.3125 6.42969 0 5.51562 0 4.5C0 3.25781 0.439453 2.19727 1.31836 1.31836C2.19727 0.439453 3.25781 0 4.5 0C5.51562 0 6.42969 0.3125 7.24219 0.9375C7.84375 0.8125 8.42969 0.75 9 0.75C10.1172 0.75 11.1855 0.966797 12.2051 1.40039C13.2246 1.83398 14.1035 2.41992 14.8418 3.1582C15.5801 3.89648 16.166 4.77539 16.5996 5.79492C17.0332 6.81445 17.25 7.88281 17.25 9C17.25 9.57031 17.1875 10.1563 17.0625 10.7578C17.6875 11.5703 18 12.4844 18 13.5Z" fill="#1DDBF3"/>
</svg>
